<svg width="53" height="25" viewBox="0 0 53 25" fill="none" xmlns="http://www.w3.org/2000/svg">
<path fill-rule="evenodd" clip-rule="evenodd" d="M6.58572 8.51733C6.6381 8.57249 6.67966 8.63801 6.70802 8.71014C6.73638 8.78228 6.75097 8.85961 6.75097 8.93771C6.75097 9.01581 6.73638 9.09314 6.70802 9.16527C6.67966 9.23741 6.6381 9.30293 6.58572 9.35808L3.60784 12.5002L6.58572 15.6423C6.63802 15.6975 6.6795 15.7631 6.70781 15.8352C6.73611 15.9073 6.75068 15.9846 6.75068 16.0627C6.75068 16.1408 6.73611 16.2181 6.70781 16.2902C6.6795 16.3623 6.63802 16.4279 6.58572 16.4831C6.53342 16.5383 6.47133 16.5821 6.403 16.612C6.33467 16.6418 6.26143 16.6572 6.18747 16.6572C6.11351 16.6572 6.04027 16.6418 5.97194 16.612C5.9036 16.5821 5.84152 16.5383 5.78922 16.4831L2.41422 12.9206C2.36183 12.8654 2.32027 12.7999 2.29192 12.7278C2.26356 12.6556 2.24896 12.5783 2.24896 12.5002C2.24896 12.4221 2.26356 12.3448 2.29192 12.2726C2.32027 12.2005 2.36183 12.135 2.41422 12.0798L5.78922 8.51733C5.84147 8.46204 5.90354 8.41817 5.97188 8.38824C6.04022 8.3583 6.11348 8.3429 6.18747 8.3429C6.26146 8.3429 6.33472 8.3583 6.40306 8.38824C6.47139 8.41817 6.53347 8.46204 6.58572 8.51733Z" fill="#56597A" fill-opacity="0.6"/>
<path fill-rule="evenodd" clip-rule="evenodd" d="M2.8125 12.5002C2.8125 12.3428 2.87176 12.1917 2.97725 12.0804C3.08274 11.969 3.22582 11.9065 3.375 11.9065H15.1875C15.3367 11.9065 15.4798 11.969 15.5852 12.0804C15.6907 12.1917 15.75 12.3428 15.75 12.5002C15.75 12.6577 15.6907 12.8087 15.5852 12.9201C15.4798 13.0314 15.3367 13.094 15.1875 13.094H3.375C3.22582 13.094 3.08274 13.0314 2.97725 12.9201C2.87176 12.8087 2.8125 12.6577 2.8125 12.5002Z" fill="#56597A" fill-opacity="0.6"/>
<path fill-rule="evenodd" clip-rule="evenodd" d="M43.8531 7.25955C43.9257 7.1868 44.0119 7.12907 44.1068 7.08969C44.2017 7.0503 44.3035 7.03003 44.4062 7.03003C44.509 7.03003 44.6108 7.0503 44.7057 7.08969C44.8006 7.12907 44.8868 7.1868 44.9594 7.25955L49.6469 11.9471C49.7196 12.0196 49.7773 12.1058 49.8167 12.2007C49.8561 12.2957 49.8764 12.3974 49.8764 12.5002C49.8764 12.6029 49.8561 12.7047 49.8167 12.7996C49.7773 12.8945 49.7196 12.9807 49.6469 13.0533L44.9594 17.7408C44.8127 17.8875 44.6137 17.9699 44.4062 17.9699C44.1988 17.9699 43.9998 17.8875 43.8531 17.7408C43.7064 17.5941 43.624 17.3951 43.624 17.1877C43.624 16.9802 43.7064 16.7812 43.8531 16.6346L47.9891 12.5002L43.8531 8.3658C43.7804 8.29323 43.7226 8.20702 43.6833 8.1121C43.6439 8.01719 43.6236 7.91544 43.6236 7.81268C43.6236 7.70991 43.6439 7.60816 43.6833 7.51325C43.7226 7.41833 43.7804 7.33212 43.8531 7.25955Z" fill="#F78CB6"/>
<path fill-rule="evenodd" clip-rule="evenodd" d="M31.125 12.5002C31.125 12.293 31.2073 12.0943 31.3538 11.9478C31.5003 11.8013 31.699 11.719 31.9062 11.719H48.3125C48.5197 11.719 48.7184 11.8013 48.8649 11.9478C49.0114 12.0943 49.0938 12.293 49.0938 12.5002C49.0938 12.7074 49.0114 12.9062 48.8649 13.0527C48.7184 13.1992 48.5197 13.2815 48.3125 13.2815H31.9062C31.699 13.2815 31.5003 13.1992 31.3538 13.0527C31.2073 12.9062 31.125 12.7074 31.125 12.5002Z" fill="#F78CB6"/>
</svg>
