<svg width="786" height="162" viewBox="0 0 786 162" fill="none" xmlns="http://www.w3.org/2000/svg">
<g filter="url(#filter0_d_1_511)">
<rect x="20" y="20" width="706" height="82" rx="4" fill="white"/>
<path d="M87.0044 70V58.14H91.2444V56.66H81.1244V58.14H85.3444V70H87.0044ZM91.7373 73.78C92.0173 73.86 92.5173 73.92 92.8373 73.92C94.1173 73.9 95.0973 73.36 95.6773 71.96L100.517 60.34H98.8773L95.6773 68.26L92.4573 60.34H90.8373L94.8773 70.1L94.2373 71.56C93.8973 72.36 93.4573 72.58 92.7973 72.58C92.5573 72.58 92.1973 72.52 91.9773 72.42L91.7373 73.78ZM106.842 70.24C109.382 70.24 111.142 68.28 111.142 65.16C111.142 62.02 109.382 60.1 106.842 60.1C105.482 60.1 104.282 60.8 103.582 61.78V60.34H102.082V73.68H103.582V68.54C104.362 69.62 105.522 70.24 106.842 70.24ZM106.462 68.9C105.282 68.9 104.102 68.18 103.582 67.34V62.98C104.102 62.14 105.282 61.44 106.462 61.44C108.402 61.44 109.562 63.02 109.562 65.16C109.562 67.3 108.402 68.9 106.462 68.9ZM117.887 70.24C119.467 70.24 120.767 69.72 121.727 68.76L121.007 67.78C120.247 68.56 119.127 69 118.027 69C115.947 69 114.667 67.48 114.547 65.66H122.367V65.28C122.367 62.38 120.647 60.1 117.727 60.1C114.967 60.1 112.967 62.36 112.967 65.16C112.967 68.18 115.027 70.24 117.887 70.24ZM120.887 64.56H114.547C114.627 63.08 115.647 61.34 117.707 61.34C119.907 61.34 120.867 63.12 120.887 64.56ZM135.553 70V64.36L140.793 56.66H138.853L134.713 62.86L130.573 56.66H128.633L133.893 64.36V70H135.553ZM144.154 70.24C147.094 70.24 148.934 67.96 148.934 65.16C148.934 62.36 147.094 60.1 144.154 60.1C141.214 60.1 139.374 62.36 139.374 65.16C139.374 67.96 141.214 70.24 144.154 70.24ZM144.154 68.9C142.094 68.9 140.934 67.14 140.934 65.16C140.934 63.2 142.094 61.44 144.154 61.44C146.214 61.44 147.354 63.2 147.354 65.16C147.354 67.14 146.214 68.9 144.154 68.9ZM159.399 70V60.34H157.899V67.44C157.339 68.22 156.219 68.9 155.039 68.9C153.739 68.9 152.879 68.4 152.879 66.7V60.34H151.379V67.16C151.379 69.26 152.439 70.24 154.459 70.24C155.899 70.24 157.159 69.48 157.899 68.64V70H159.399ZM163.895 70V63.16C164.335 62.38 165.595 61.62 166.515 61.62C166.755 61.62 166.935 61.64 167.115 61.68V60.14C165.795 60.14 164.675 60.88 163.895 61.9V60.34H162.395V70H163.895ZM182.952 70V68.52H175.872V63.92H182.812V62.44H175.872V58.14H182.952V56.66H174.212V70H182.952ZM198.699 70V63.02C198.699 61.08 197.759 60.1 195.999 60.1C194.599 60.1 193.299 61.02 192.759 61.9C192.479 60.9 191.639 60.1 190.159 60.1C188.739 60.1 187.439 61.12 187.039 61.74V60.34H185.539V70H187.039V62.94C187.559 62.16 188.599 61.44 189.579 61.44C190.839 61.44 191.359 62.22 191.359 63.44V70H192.859V62.92C193.359 62.16 194.419 61.44 195.419 61.44C196.659 61.44 197.199 62.22 197.199 63.44V70H198.699ZM209.231 70V63.36C209.231 61.02 207.531 60.1 205.491 60.1C203.911 60.1 202.671 60.62 201.631 61.7L202.331 62.74C203.191 61.82 204.131 61.4 205.291 61.4C206.691 61.4 207.731 62.14 207.731 63.44V65.18C206.951 64.28 205.851 63.86 204.531 63.86C202.891 63.86 201.151 64.88 201.151 67.04C201.151 69.14 202.891 70.24 204.531 70.24C205.831 70.24 206.931 69.78 207.731 68.9V70H209.231ZM205.071 69.16C203.671 69.16 202.691 68.28 202.691 67.06C202.691 65.82 203.671 64.94 205.071 64.94C206.131 64.94 207.151 65.34 207.731 66.14V67.96C207.151 68.76 206.131 69.16 205.071 69.16ZM212.978 58.96C213.538 58.96 213.998 58.52 213.998 57.96C213.998 57.4 213.538 56.94 212.978 56.94C212.438 56.94 211.978 57.4 211.978 57.96C211.978 58.52 212.438 58.96 212.978 58.96ZM213.738 70V60.34H212.238V70H213.738ZM218.23 70V56.66H216.73V70H218.23ZM237.859 70L232.479 56.66H230.419L225.059 70H226.959L228.139 67.04H234.779L235.959 70H237.859ZM234.279 65.56H228.619L231.459 58.38L234.279 65.56ZM248.043 70V56.66H246.543V61.8C245.763 60.74 244.583 60.1 243.283 60.1C240.743 60.1 238.983 62.1 238.983 65.18C238.983 68.32 240.763 70.24 243.283 70.24C244.643 70.24 245.823 69.54 246.543 68.56V70H248.043ZM243.643 68.9C241.703 68.9 240.543 67.32 240.543 65.18C240.543 63.04 241.703 61.44 243.643 61.44C244.843 61.44 246.003 62.16 246.543 63V67.38C246.003 68.22 244.843 68.9 243.643 68.9ZM259.547 70V56.66H258.047V61.8C257.267 60.74 256.087 60.1 254.787 60.1C252.247 60.1 250.487 62.1 250.487 65.18C250.487 68.32 252.267 70.24 254.787 70.24C256.147 70.24 257.327 69.54 258.047 68.56V70H259.547ZM255.147 68.9C253.207 68.9 252.047 67.32 252.047 65.18C252.047 63.04 253.207 61.44 255.147 61.44C256.347 61.44 257.507 62.16 258.047 63V67.38C257.507 68.22 256.347 68.9 255.147 68.9ZM264.051 70V63.16C264.491 62.38 265.751 61.62 266.671 61.62C266.911 61.62 267.091 61.64 267.271 61.68V60.14C265.951 60.14 264.831 60.88 264.051 61.9V60.34H262.551V70H264.051ZM273.512 70.24C275.092 70.24 276.392 69.72 277.352 68.76L276.632 67.78C275.872 68.56 274.752 69 273.652 69C271.572 69 270.292 67.48 270.172 65.66H277.992V65.28C277.992 62.38 276.272 60.1 273.352 60.1C270.592 60.1 268.592 62.36 268.592 65.16C268.592 68.18 270.652 70.24 273.512 70.24ZM276.512 64.56H270.172C270.252 63.08 271.272 61.34 273.332 61.34C275.532 61.34 276.492 63.12 276.512 64.56ZM283.482 70.24C285.982 70.24 287.282 68.94 287.282 67.32C287.282 63.56 281.302 64.96 281.302 62.84C281.302 61.98 282.122 61.32 283.442 61.32C284.682 61.32 285.742 61.84 286.322 62.54L287.022 61.5C286.242 60.72 285.082 60.1 283.442 60.1C281.142 60.1 279.842 61.38 279.842 62.88C279.842 66.46 285.822 65.02 285.822 67.36C285.822 68.32 285.022 69.02 283.542 69.02C282.222 69.02 281.002 68.38 280.362 67.64L279.582 68.72C280.562 69.76 281.902 70.24 283.482 70.24ZM292.779 70.24C295.279 70.24 296.579 68.94 296.579 67.32C296.579 63.56 290.599 64.96 290.599 62.84C290.599 61.98 291.419 61.32 292.739 61.32C293.979 61.32 295.039 61.84 295.619 62.54L296.319 61.5C295.539 60.72 294.379 60.1 292.739 60.1C290.439 60.1 289.139 61.38 289.139 62.88C289.139 66.46 295.119 65.02 295.119 67.36C295.119 68.32 294.319 69.02 292.839 69.02C291.519 69.02 290.299 68.38 289.659 67.64L288.879 68.72C289.859 69.76 291.199 70.24 292.779 70.24Z" fill="#D2D2D2"/>
<path d="M62.8333 57.1666H50.1667C49.2958 57.1666 48.5912 57.8791 48.5912 58.75L48.5833 68.25C48.5833 69.1208 49.2958 69.8333 50.1667 69.8333H62.8333C63.7042 69.8333 64.4167 69.1208 64.4167 68.25V58.75C64.4167 57.8791 63.7042 57.1666 62.8333 57.1666ZM62.8333 68.25H50.1667V60.3333L56.5 64.2916L62.8333 60.3333V68.25ZM56.5 62.7083L50.1667 58.75H62.8333L56.5 62.7083Z" fill="#D2D2D2"/>
<g filter="url(#filter1_d_1_511)">
<rect x="535" y="34" width="178" height="54" rx="4" fill="#F78CB6"/>
<path d="M562.84 57.04L561.08 57.66C560.987 57.0467 560.687 56.4933 560.18 56C559.673 55.4933 558.973 55.24 558.08 55.24C557.293 55.24 556.64 55.4667 556.12 55.92C555.6 56.3733 555.34 56.9333 555.34 57.6C555.34 58.12 555.493 58.56 555.8 58.92C556.12 59.28 556.573 59.5267 557.16 59.66L559.28 60.12C560.453 60.3733 561.36 60.8533 562 61.56C562.64 62.2533 562.96 63.1 562.96 64.1C562.96 65.2467 562.507 66.2333 561.6 67.06C560.693 67.8867 559.513 68.3 558.06 68.3C556.473 68.3 555.227 67.8867 554.32 67.06C553.427 66.22 552.907 65.2267 552.76 64.08L554.64 63.48C554.72 64.3333 555.053 65.0533 555.64 65.64C556.227 66.2267 557.027 66.52 558.04 66.52C558.973 66.52 559.693 66.3067 560.2 65.88C560.707 65.4533 560.96 64.9133 560.96 64.26C560.96 63.7267 560.78 63.2667 560.42 62.88C560.06 62.48 559.533 62.2067 558.84 62.06L556.82 61.62C555.767 61.3933 554.927 60.9467 554.3 60.28C553.673 59.6133 553.36 58.7667 553.36 57.74C553.36 56.62 553.813 55.64 554.72 54.8C555.64 53.9467 556.747 53.52 558.04 53.52C559.493 53.52 560.607 53.8733 561.38 54.58C562.153 55.2867 562.64 56.1067 562.84 57.04ZM566.88 62.2H572.14C572.113 61.48 571.873 60.8933 571.42 60.44C570.967 59.9733 570.327 59.74 569.5 59.74C568.753 59.74 568.14 59.9867 567.66 60.48C567.18 60.96 566.92 61.5333 566.88 62.2ZM572.42 64.7L574.04 65.26C573.76 66.1533 573.24 66.8867 572.48 67.46C571.72 68.02 570.8 68.3 569.72 68.3C568.373 68.3 567.227 67.84 566.28 66.92C565.347 65.9867 564.88 64.7333 564.88 63.16C564.88 61.6933 565.333 60.48 566.24 59.52C567.147 58.56 568.227 58.08 569.48 58.08C570.933 58.08 572.067 58.54 572.88 59.46C573.693 60.3667 574.1 61.5867 574.1 63.12C574.1 63.36 574.087 63.56 574.06 63.72H566.82C566.833 64.5733 567.113 65.2733 567.66 65.82C568.22 66.3667 568.907 66.64 569.72 66.64C571.093 66.64 571.993 65.9933 572.42 64.7ZM578.78 62.44V68H576.9V58.38H578.74V59.76C579.38 58.6533 580.367 58.1 581.7 58.1C582.807 58.1 583.653 58.4533 584.24 59.16C584.84 59.8667 585.14 60.78 585.14 61.9V68H583.26V62.22C583.26 60.6067 582.513 59.8 581.02 59.8C580.313 59.8 579.76 60.0533 579.36 60.56C578.973 61.0533 578.78 61.68 578.78 62.44ZM589.65 63.16C589.65 64.1733 589.897 65 590.39 65.64C590.897 66.28 591.59 66.6 592.47 66.6C593.31 66.6 593.984 66.2733 594.49 65.62C594.997 64.9667 595.25 64.1333 595.25 63.12C595.25 62.12 595.004 61.3133 594.51 60.7C594.017 60.0867 593.344 59.78 592.49 59.78C591.637 59.78 590.95 60.0933 590.43 60.72C589.91 61.3467 589.65 62.16 589.65 63.16ZM595.27 66.7V66.54C595.017 67.0333 594.63 67.4467 594.11 67.78C593.604 68.1 592.997 68.26 592.29 68.26C590.917 68.26 589.81 67.78 588.97 66.82C588.144 65.8467 587.73 64.6267 587.73 63.16C587.73 61.76 588.157 60.5733 589.01 59.6C589.864 58.6133 590.957 58.12 592.29 58.12C593.077 58.12 593.717 58.28 594.21 58.6C594.704 58.9067 595.044 59.2867 595.23 59.74V53.52H597.09V66.22C597.09 66.8733 597.124 67.4667 597.19 68H595.37C595.304 67.6267 595.27 67.1933 595.27 66.7ZM607.968 62.44V68H606.088V58.38H607.928V59.76C608.568 58.6533 609.555 58.1 610.888 58.1C611.995 58.1 612.842 58.4533 613.428 59.16C614.028 59.8667 614.328 60.78 614.328 61.9V68H612.448V62.22C612.448 60.6067 611.702 59.8 610.208 59.8C609.502 59.8 608.948 60.0533 608.548 60.56C608.162 61.0533 607.968 61.68 607.968 62.44ZM619.699 65.72C620.285 66.32 620.999 66.62 621.839 66.62C622.679 66.62 623.385 66.32 623.959 65.72C624.545 65.1067 624.839 64.26 624.839 63.18C624.839 62.1133 624.545 61.28 623.959 60.68C623.385 60.0667 622.679 59.76 621.839 59.76C620.999 59.76 620.285 60.0667 619.699 60.68C619.125 61.28 618.839 62.1133 618.839 63.18C618.839 64.26 619.125 65.1067 619.699 65.72ZM618.299 59.54C619.232 58.5667 620.412 58.08 621.839 58.08C623.265 58.08 624.439 58.5667 625.359 59.54C626.292 60.5 626.759 61.7133 626.759 63.18C626.759 64.66 626.299 65.8867 625.379 66.86C624.459 67.82 623.279 68.3 621.839 68.3C620.399 68.3 619.219 67.82 618.299 66.86C617.379 65.8867 616.919 64.66 616.919 63.18C616.919 61.7133 617.379 60.5 618.299 59.54ZM634.789 58.38H636.729L639.229 65.62L641.349 58.38H643.329L640.209 68H638.269L635.709 60.68L633.209 68H631.229L628.069 58.38H630.129L632.289 65.62L634.789 58.38Z" fill="white"/>
<rect x="666.75" y="47.75" width="26.5" height="26.5" rx="1.25" fill="#FFC1DA" fill-opacity="0.28" stroke="white" stroke-width="1.5"/>
<path d="M656 60.4419H681.628M681.628 60.4419L675.221 66.4884M681.628 60.4419L675.221 55" stroke="white" stroke-width="2" stroke-linecap="round" stroke-linejoin="round"/>
</g>
</g>
<defs>
<filter id="filter0_d_1_511" x="0" y="0" width="786" height="162" filterUnits="userSpaceOnUse" color-interpolation-filters="sRGB">
<feFlood flood-opacity="0" result="BackgroundImageFix"/>
<feColorMatrix in="SourceAlpha" type="matrix" values="0 0 0 0 0 0 0 0 0 0 0 0 0 0 0 0 0 0 127 0" result="hardAlpha"/>
<feOffset dx="20" dy="20"/>
<feGaussianBlur stdDeviation="20"/>
<feColorMatrix type="matrix" values="0 0 0 0 0.804167 0 0 0 0 0.804167 0 0 0 0 0.804167 0 0 0 0.25 0"/>
<feBlend mode="normal" in2="BackgroundImageFix" result="effect1_dropShadow_1_511"/>
<feBlend mode="normal" in="SourceGraphic" in2="effect1_dropShadow_1_511" result="shape"/>
</filter>
<filter id="filter1_d_1_511" x="525" y="24" width="218" height="94" filterUnits="userSpaceOnUse" color-interpolation-filters="sRGB">
<feFlood flood-opacity="0" result="BackgroundImageFix"/>
<feColorMatrix in="SourceAlpha" type="matrix" values="0 0 0 0 0 0 0 0 0 0 0 0 0 0 0 0 0 0 127 0" result="hardAlpha"/>
<feOffset dx="10" dy="10"/>
<feGaussianBlur stdDeviation="10"/>
<feColorMatrix type="matrix" values="0 0 0 0 0.980392 0 0 0 0 0.552941 0 0 0 0 0.721569 0 0 0 0.2 0"/>
<feBlend mode="normal" in2="BackgroundImageFix" result="effect1_dropShadow_1_511"/>
<feBlend mode="normal" in="SourceGraphic" in2="effect1_dropShadow_1_511" result="shape"/>
</filter>
</defs>
</svg>
